<svg version="1.1" viewBox="0.0 0.0 973.9238845144357 258.06824146981626" fill="none" stroke="none" stroke-linecap="square" stroke-miterlimit="10" xmlns:xlink="http://www.w3.org/1999/xlink" xmlns="http://www.w3.org/2000/svg"><clipPath id="p.0"><path d="m0 0l973.9239 0l0 258.06824l-973.9239 0l0 -258.06824z" clip-rule="nonzero"/></clipPath><g clip-path="url(#p.0)"><path fill="#000000" fill-opacity="0.0" d="m0 0l973.9239 0l0 258.06824l-973.9239 0z" fill-rule="evenodd"/><path fill="#000000" fill-opacity="0.0" d="m288.99606 95.097115l571.71655 0l0 115.77953l-571.71655 0z" fill-rule="evenodd"/><path fill="#ffffff" d="m311.5742 189.85712q-1.96875 0 -3.3125 -1.34375q-1.328125 -1.34375 -1.328125 -3.296875l0 -60.484375q0 -2.046875 1.328125 -3.34375q1.34375 -1.296875 3.3125 -1.296875l17.859375 0q6.703125 0 11.875 2.953125q5.1875 2.9375 8.09375 8.171875q2.90625 5.21875 2.90625 12.015625q0 6.515625 -2.90625 11.609375q-2.90625 5.09375 -8.09375 7.953125q-5.171875 2.859375 -11.875 2.859375l-13.21875 0l0 19.5625q0 1.953125 -1.296875 3.296875q-1.296875 1.34375 -3.34375 1.34375zm4.640625 -32.78125l13.21875 0q4.109375 0 7.234375 -1.78125q3.140625 -1.796875 4.921875 -4.921875q1.78125 -3.125 1.78125 -7.140625q0 -4.296875 -1.78125 -7.546875q-1.78125 -3.265625 -4.921875 -5.140625q-3.125 -1.875 -7.234375 -1.875l-13.21875 0l0 28.40625zm65.833466 33.140625q-7.234375 0 -12.78125 -3.171875q-5.53125 -3.171875 -8.703125 -8.75q-3.171875 -5.59375 -3.171875 -12.828125q0 -7.328125 3.171875 -12.90625q3.171875 -5.578125 8.703125 -8.75q5.546875 -3.171875 12.78125 -3.171875q7.15625 0 12.6875 3.171875q5.546875 3.171875 8.71875 8.75q3.171875 5.578125 3.171875 12.90625q0 7.234375 -3.140625 12.828125q-3.125 5.578125 -8.671875 8.75q-5.53125 3.171875 -12.765625 3.171875zm0 -8.046875q4.65625 0 8.21875 -2.140625q3.578125 -2.140625 5.578125 -5.890625q2.015625 -3.75 2.015625 -8.671875q0 -4.90625 -2.015625 -8.703125q-2.0 -3.796875 -5.578125 -5.9375q-3.5625 -2.15625 -8.21875 -2.15625q-4.640625 0 -8.21875 2.15625q-3.5625 2.140625 -5.625 5.9375q-2.046875 3.796875 -2.046875 8.703125q0 4.921875 2.046875 8.671875q2.0625 3.75 5.625 5.890625q3.578125 2.140625 8.21875 2.140625zm49.765167 7.6875q-3.9375 0 -6.984375 -2.140625q-3.03125 -2.140625 -4.734375 -5.84375q-1.6875 -3.71875 -1.6875 -8.546875l0 -48.765625q0 -1.96875 1.25 -3.21875q1.25 -1.25 3.21875 -1.25q1.96875 0 3.21875 1.25q1.25 1.25 1.25 3.21875l0 48.765625q0 3.3125 1.25 5.453125q1.25 2.140625 3.21875 2.140625l2.234375 0q1.78125 0 2.890625 1.25q1.125 1.25 1.125 3.21875q0 1.96875 -1.703125 3.21875q-1.6875 1.25 -4.375 1.25l-0.171875 0zm23.939056 21.4375q-0.890625 0 -2.140625 -0.53125q-3.9375 -1.796875 -2.15625 -5.625l27.25 -61.546875q1.78125 -3.765625 5.625 -2.15625q4.015625 1.703125 2.234375 5.640625l-27.328125 61.453125q-1.078125 2.765625 -3.484375 2.765625zm10.53125 -23.40625q-1.6875 0.71875 -3.171875 0.140625q-1.46875 -0.578125 -2.359375 -2.28125l-20.453125 -38.859375q-0.890625 -1.6875 -0.234375 -3.25q0.671875 -1.578125 2.375 -2.28125q1.703125 -0.71875 3.21875 -0.140625q1.515625 0.578125 2.3125 2.28125l19.5625 38.859375q0.90625 1.6875 0.671875 3.25q-0.21875 1.5625 -1.921875 2.28125zm34.397797 1.96875q-1.96875 0 -3.3125 -1.34375q-1.328125 -1.34375 -1.328125 -3.296875l0 -60.484375q0 -2.046875 1.328125 -3.34375q1.34375 -1.296875 3.3125 -1.296875q2.046875 0 3.34375 1.296875q1.296875 1.296875 1.296875 3.34375l0 25.640625l41.453094 0l0 -25.640625q0 -2.046875 1.328125 -3.34375q1.34375 -1.296875 3.3125 -1.296875q2.0625 0 3.3125 1.296875q1.25 1.296875 1.25 3.34375l0 60.484375q0 1.953125 -1.25 3.296875q-1.25 1.34375 -3.3125 1.34375q-1.96875 0 -3.3125 -1.34375q-1.328125 -1.34375 -1.328125 -3.296875l0 -26.625l-41.453094 0l0 26.625q0 1.953125 -1.296875 3.296875q-1.296875 1.34375 -3.34375 1.34375zm95.22659 0.359375q-7.421875 0 -13.1875 -3.171875q-5.75 -3.171875 -9.015625 -8.75q-3.265625 -5.59375 -3.265625 -12.828125q0 -7.328125 3.078125 -12.90625q3.09375 -5.578125 8.53125 -8.75q5.453125 -3.171875 12.515625 -3.171875q6.96875 0 11.96875 3.078125q5.0 3.078125 7.640625 8.484375q2.640625 5.40625 2.640625 12.46875q0 1.6875 -1.171875 2.8125q-1.15625 1.109375 -2.9375 1.109375l-36.0 0l0 -7.140625l35.71875 0l-3.65625 2.5q-0.09375 -4.46875 -1.796875 -7.984375q-1.6875 -3.53125 -4.8125 -5.578125q-3.125 -2.0625 -7.59375 -2.0625q-5.09375 0 -8.71875 2.234375q-3.609375 2.21875 -5.484375 6.109375q-1.875 3.890625 -1.875 8.796875q0 4.921875 2.234375 8.765625q2.234375 3.828125 6.15625 6.0625q3.9375 2.234375 9.03125 2.234375q2.765625 0 5.671875 -1.015625q2.90625 -1.03125 4.6875 -2.375q1.34375 -0.984375 2.90625 -1.03125q1.5625 -0.046875 2.71875 0.9375q1.515625 1.34375 1.609375 2.953125q0.09375 1.609375 -1.421875 2.765625q-3.046875 2.40625 -7.5625 3.9375q-4.5 1.515625 -8.609375 1.515625zm51.092285 0q-6.515625 0 -11.703125 -3.25q-5.1875 -3.265625 -8.1875 -8.84375q-2.984375 -5.59375 -2.984375 -12.65625q0 -7.046875 3.265625 -12.671875q3.265625 -5.640625 8.84375 -8.890625q5.578125 -3.265625 12.546875 -3.265625q6.96875 0 12.5 3.265625q5.546875 3.25 8.8125 8.890625q3.265625 5.625 3.265625 12.671875l-3.484375 0q0 7.0625 -3.0 12.65625q-2.984375 5.578125 -8.171875 8.84375q-5.1875 3.25 -11.703125 3.25zm1.78125 -8.046875q4.5625 0 8.125 -2.1875q3.578125 -2.1875 5.625 -5.984375q2.0625 -3.796875 2.0625 -8.53125q0 -4.8125 -2.0625 -8.609375q-2.046875 -3.796875 -5.625 -5.984375q-3.5625 -2.203125 -8.125 -2.203125q-4.46875 0 -8.09375 2.203125q-3.609375 2.1875 -5.703125 5.984375q-2.09375 3.796875 -2.09375 8.609375q0 4.734375 2.09375 8.53125q2.09375 3.796875 5.703125 5.984375q3.625 2.1875 8.09375 2.1875zm20.015625 7.78125q-1.96875 0 -3.265625 -1.296875q-1.296875 -1.296875 -1.296875 -3.265625l0 -13.671875l1.703125 -9.46875l7.421875 3.21875l0 19.921875q0 1.96875 -1.296875 3.265625q-1.296875 1.296875 -3.265625 1.296875zm29.749573 -0.09375q-3.9375 0 -6.984375 -2.140625q-3.03125 -2.140625 -4.734375 -5.84375q-1.6875 -3.71875 -1.6875 -8.546875l0 -48.765625q0 -1.96875 1.25 -3.21875q1.25 -1.25 3.21875 -1.25q1.96875 0 3.21875 1.25q1.25 1.25 1.25 3.21875l0 48.765625q0 3.3125 1.25 5.453125q1.25 2.140625 3.21875 2.140625l2.234375 0q1.78125 0 2.890625 1.25q1.125 1.25 1.125 3.21875q0 1.96875 -1.703125 3.21875q-1.6875 1.25 -4.375 1.25l-0.171875 0zm32.95465 0q-4.46875 0 -8.046875 -2.28125q-3.5625 -2.28125 -5.625 -6.203125q-2.046875 -3.9375 -2.046875 -8.84375l0 -42.609375q0 -1.96875 1.25 -3.21875q1.25 -1.25 3.21875 -1.25q1.96875 0 3.21875 1.25q1.25 1.25 1.25 3.21875l0 42.609375q0 3.578125 1.953125 5.984375q1.96875 2.40625 4.828125 2.40625l3.046875 0q1.59375 0 2.703125 1.25q1.125 1.25 1.125 3.21875q0 1.96875 -1.46875 3.21875q-1.46875 1.25 -3.796875 1.25l-1.609375 0zm-19.828125 -39.390625q-1.875 0 -3.046875 -1.0625q-1.15625 -1.078125 -1.15625 -2.6875q0 -1.796875 1.15625 -2.859375q1.171875 -1.078125 3.046875 -1.078125l20.640625 0q1.875 0 3.03125 1.078125q1.15625 1.0625 1.15625 2.859375q0 1.609375 -1.15625 2.6875q-1.15625 1.0625 -3.03125 1.0625l-20.640625 0zm42.42993 21.609375q-1.96875 0 -3.265625 -1.28125q-1.28125 -1.296875 -1.28125 -3.265625l0 -42.875q0 -2.0625 1.28125 -3.3125q1.296875 -1.25 3.265625 -1.25q2.0625 0 3.3125 1.25q1.25 1.25 1.25 3.3125l0 42.875q0 1.96875 -1.25 3.265625q-1.25 1.28125 -3.3125 1.28125zm36.71875 17.875q-1.96875 0 -3.265625 -1.296875q-1.296875 -1.296875 -1.296875 -3.265625l0 -21.96875q0 -5.09375 -1.875 -8.3125q-1.875 -3.21875 -5.046875 -4.78125q-3.171875 -1.5625 -7.28125 -1.5625q-3.75 0 -6.796875 1.53125q-3.03125 1.515625 -4.8125 4.0625q-1.78125 2.53125 -1.78125 5.84375l-5.640625 0q0 -5.625 2.71875 -10.046875q2.734375 -4.421875 7.46875 -7.015625q4.734375 -2.59375 10.640625 -2.59375q6.15625 0 11.015625 2.640625q4.875 2.640625 7.6875 7.734375q2.8125 5.078125 2.8125 12.5l0 21.96875q0 1.96875 -1.296875 3.265625q-1.28125 1.296875 -3.25 1.296875zm-36.71875 0q-1.96875 0 -3.265625 -1.296875q-1.28125 -1.296875 -1.28125 -3.265625l0 -39.84375q0 -2.046875 1.28125 -3.296875q1.296875 -1.25 3.265625 -1.25q2.0625 0 3.3125 1.25q1.25 1.25 1.25 3.296875l0 39.84375q0 1.96875 -1.25 3.265625q-1.25 1.296875 -3.3125 1.296875z" fill-rule="nonzero"/><path fill="#ffffff" d="m141.56415 115.555786l142.55072 -36.8798l-25.942383 144.91385z" fill-rule="evenodd"/><path stroke="#4a86e8" stroke-width="6.451443569553805" stroke-linejoin="round" stroke-linecap="butt" d="m141.56415 115.555786l142.55072 -36.8798l-25.942383 144.91385z" fill-rule="evenodd"/><path fill="#ffffff" d="m115.960236 153.65607l125.89 -76.30701l16.859238 146.24545z" fill-rule="evenodd"/><path stroke="#4a86e8" stroke-width="6.451443569553805" stroke-linejoin="round" stroke-linecap="butt" d="m115.960236 153.65607l125.89 -76.30701l16.859238 146.24545z" fill-rule="evenodd"/><path fill="#ffffff" d="m102.85162 186.71219l105.73834 -102.45122l49.02249 138.82649z" fill-rule="evenodd"/><path stroke="#4a86e8" stroke-width="6.451443569553805" stroke-linejoin="round" stroke-linecap="butt" d="m102.85162 186.71219l105.73834 -102.45122l49.02249 138.82649z" fill-rule="evenodd"/><path fill="#ffffff" d="m99.28643 223.57336l79.48989 -123.905846l79.48988 123.922386z" fill-rule="evenodd"/><path stroke="#4a86e8" stroke-width="6.451443569553805" stroke-linejoin="round" stroke-linecap="butt" d="m99.28643 223.57336l79.48989 -123.905846l79.48988 123.922386z" fill-rule="evenodd"/></g></svg>